<?xml version="1.0" encoding="UTF-8"?>
<svg id="_图层_1" data-name="图层 1" xmlns="http://www.w3.org/2000/svg" viewBox="0 0 45.35 45.35">
  <defs>
    <style>
      .cls-1 {
        fill: #e20314;
      }

      .cls-2 {
        fill: #204098;
      }
    </style>
  </defs>
  <g>
    <path class="cls-2" d="m35.82,25.67c-.35,2.39-1.82,3.58-4.42,3.58-1.75,0-4.72-.61-4.2-4.07l.64-4.23c.05-.29.19-.53.42-.72s.49-.28.79-.28h.99l-.78,5.2c-.31,2.33,1.71,2.4,2.14,2.4,1.89,0,2.31-1.34,2.41-2.04l.68-4.55c.04-.29.18-.54.41-.73.23-.19.49-.28.79-.28h.98l-.84,5.72Z"/>
    <path class="cls-2" d="m25.61,21.01c.83.77,1.25,1.77,1.25,3,0,1.53-.49,2.78-1.47,3.74-.98.97-2.24,1.45-3.77,1.45-1.33,0-2.43-.4-3.29-1.19-.87-.8-1.3-1.82-1.3-3.05,0-1.47.51-2.68,1.53-3.65,1.01-.98,2.29-1.46,3.83-1.46,1.32,0,2.4.39,3.24,1.16Zm-1.69,5.53c.63-.66.94-1.46.94-2.4,0-.76-.25-1.38-.75-1.87-.49-.49-1.12-.74-1.87-.74-.87,0-1.63.33-2.26.99-.64.66-.95,1.45-.95,2.36,0,.77.24,1.41.73,1.9.48.49,1.11.74,1.87.74.9,0,1.67-.33,2.3-.98Z"/>
    <path class="cls-2" d="m18.42,19.95h-1.52c-.44,0-.79.19-1.06.58l-1.84,3.39-1.03-3.17c-.25-.54-.64-.81-1.17-.81h-1.43c.66,1.57,1.11,2.72,1.41,3.61,1.17,3.55-.09,5.61-3.08,6.19,5.03-.02,5.79-1.65,9.73-9.8Z"/>
  </g>
  <g>
    <path class="cls-1" d="m13.71,16.87c-.7,0-1.24-.62-1.14-1.31l1.06-7.48c.11-.76.76-1.33,1.53-1.33h6.58,0c-.27,1.28-1.4,2.19-2.7,2.19h-2.75c-.32,0-.59.23-.63.55h0c-.1.67.42,1.26,1.09,1.26h3.45s-.05.34-.05.34c-.13.92-.92,1.6-1.85,1.6h-2.57c-.31,0-.58.23-.63.54l-.04.23c-.1.67.41,1.27,1.09,1.27h4.88s-.07.17-.07.17c-.48,1.19-1.63,1.97-2.91,1.97h-4.34Z"/>
    <path class="cls-1" d="m25.58,14.55c-.19,1.38-1.27,2.33-3.59,2.33-.69,0-1.39-.05-2.08,0,.94-.27,1.68-1.15,1.78-2.13.41.34,1.31.58,1.88.32.46-.21.64-.75.2-1.08-.39-.29-.87-.31-1.27-.53-.84-.37-1.54-.65-1.39-1.93.4-2.01,2.99-2.59,4.72-1.48-.34.71-.51,1.32-1.54,1.03-1.14-.32-1.23.27-1.25.44-.08.56.91.67,1.75,1.23.37.25.97.8.8,1.81Z"/>
    <path class="cls-1" d="m26.59,10.43c.04-.2.13-.37.29-.49.15-.13.34-.19.55-.19h1.14l-.81,5.62c-.07.45-.27.82-.62,1.1-.35.28-.75.42-1.2.42h-.26l.92-6.46Z"/>
    <path class="cls-1" d="m33.92,10.41l.35-2.42c.06-.36.23-.65.51-.89.28-.23.61-.35.99-.35h.6l-1.47,10.07h-.96c-.22,0-.4-.08-.54-.23s-.2-.34-.18-.55l.05-.31s-1.73,1.95-3.67.86c-1.11-.65-1.23-2.03-1.04-3.3.26-1.82,1.09-3.01,2.21-3.49.42-.19,1.91-.75,3.16.61Zm-.57,3.86l.33-2.16c-.69-.98-1.14-1.02-1.44-1.02-1.34,0-1.67,1.78-1.71,2.08-.28,2.11.76,2.16,1.06,2.16.67,0,1.22-.48,1.77-1.05Z"/>
    <path class="cls-1" d="m43.25,14.25c-1.31,2.28-5.79,2.99-5.22-.6h4.14c.58,0,.65-.44.72-.95.06-.46.07-.88.01-1.27-.1-.58-.5-1.91-2.75-1.91-1.24,0-2.11.43-2.7.99-1,.93-1.47,2.51-1.39,3.8.26,4.31,6.42,3.36,7.18-.07Zm-3.34-3.44c.17,0,1.46-.06,1.16,1.66h-2.87c.22-1.13.93-1.66,1.71-1.66Z"/>
    <path class="cls-1" d="m26.59,9.05c.84-1.18-.93-1.49-1-2.97-.07-1.38,2.26-2.15,2.75-.09.5-2.22,3.12-1.25,2.59.43-.56,1.79-3.31,2.53-4.34,2.63Z"/>
    <path class="cls-1" d="m11.07,11.88c2.12-.65,2.43-5.13-1.02-5.13h-3.51s-2.14,0-2.14,0l-1.16,8.18c-.11.81-.52,1.54-1.13,2.08h0s6.63,0,6.63,0c3.15,0,4.93-3.83,2.33-5.12Zm-1.79,1.54l-.03.22c-.09.64-.65,1.13-1.31,1.13h-2.53l.25-1.8h3.23c.24,0,.42.21.39.45Zm.53-4.02c-.09.65-.65,1.13-1.31,1.13h-2.5l.22-1.58h3.19c.24,0,.42.21.39.45Z"/>
  </g>
  <g>
    <path class="cls-1" d="m2.61,33.31c10.26,7.3,29.88,7.3,40.14,0-9.4,9.8-30.74,9.8-40.14,0Z"/>
    <g>
      <path class="cls-1" d="m2.32,33.75c0-.61.23-.92.82-.77-.46-.47-1.48-.35-.82.77Z"/>
      <path class="cls-1" d="m43.04,33.75c0-.61-.23-.92-.82-.77.46-.47,1.48-.35.82.77Z"/>
    </g>
  </g>
  <g>
    <path class="cls-2" d="m9.7,34.09c-.16-.94-.23-1.41-.36-2.34-.25.91-.38,1.36-.63,2.26-.02.08-.07.13-.15.15-.08.02-.16.02-.25,0-.09-.03-.16-.07-.21-.13-.05-.06-.07-.13-.05-.21.29-1.02.44-1.53.74-2.55.04-.13.12-.22.24-.27.13-.05.26-.06.4-.02.12.03.21.1.3.19.08.09.13.21.15.36.13.87.2,1.3.36,2.17-.08.33-.12.49-.2.82-.19-.05-.3-.19-.34-.43Zm.54-.39c.54-.69.81-1.04,1.33-1.75.08-.12.18-.2.3-.25.12-.04.23-.05.35-.03.14.03.25.1.34.2.09.11.12.22.09.35-.21,1.04-.32,1.56-.54,2.6-.02.08-.06.13-.14.16-.07.03-.16.03-.25.02-.09-.02-.16-.06-.22-.12-.06-.06-.08-.13-.06-.2.2-.92.3-1.38.5-2.29-.55.77-.83,1.15-1.41,1.9-.14.19-.31.27-.5.22.08-.33.12-.49.2-.82Z"/>
    <path class="cls-2" d="m15.39,34.88c-.65-.09-.98-.14-1.63-.26-.13.21-.2.32-.33.53-.04.07-.1.12-.17.15-.07.03-.14.04-.21.02-.09-.02-.17-.06-.23-.13-.06-.07-.08-.15-.07-.24,0-.04.02-.08.05-.12.65-.96.97-1.44,1.57-2.42.1-.16.2-.27.29-.32.1-.05.21-.06.33-.04.12.02.23.07.3.14.08.07.14.2.18.39.28,1.12.42,1.67.75,2.78.01.04.02.09.01.13-.01.09-.06.16-.14.2-.08.05-.17.07-.26.05-.07,0-.14-.04-.2-.09-.06-.05-.09-.11-.11-.19-.06-.24-.09-.36-.15-.61Zm-.49-2.16c-.34.59-.52.89-.87,1.47.5.09.75.12,1.25.2-.16-.67-.23-1-.38-1.67Z"/>
    <path class="cls-2" d="m16.92,35.8c-.06-.06-.09-.14-.08-.23.12-1.1.19-1.65.31-2.75.01-.13.06-.23.14-.29.08-.07.17-.09.27-.08.07,0,.15.04.22.09.07.05.13.12.18.2.56.94.86,1.41,1.48,2.33.05-.86.08-1.28.13-2.14,0-.09.04-.16.11-.22.07-.05.14-.08.23-.07.08,0,.15.04.21.1.06.06.09.14.08.23-.05,1.08-.08,1.63-.14,2.71,0,.14-.05.25-.13.33-.08.08-.18.12-.29.12-.08,0-.15-.03-.24-.09s-.15-.12-.2-.2c-.62-.92-.92-1.38-1.48-2.32-.08.85-.13,1.28-.21,2.13,0,.09-.05.16-.12.21-.07.05-.16.07-.25.06-.09,0-.16-.05-.22-.11Z"/>
    <path class="cls-2" d="m21.05,36.05c-.07-.08-.1-.18-.09-.29.04-1.07.05-1.6.09-2.67,0-.13.04-.23.11-.3.07-.07.17-.1.29-.1.31,0,.47.01.78.01.63,0,1.11.15,1.45.44.33.29.51.73.53,1.3.02.56-.14.99-.48,1.29-.34.3-.83.46-1.47.45-.37,0-.56,0-.93-.02-.11,0-.2-.05-.27-.13Zm1.23-.39c.44,0,.74-.09.92-.28.17-.19.25-.5.25-.93,0-.3-.05-.53-.14-.71-.09-.18-.22-.3-.39-.38-.17-.08-.39-.11-.67-.12-.2,0-.3,0-.5,0-.02.97-.03,1.45-.05,2.42.23,0,.35,0,.58,0Z"/>
    <path class="cls-2" d="m27.25,35.19c-.66.06-.99.08-1.64.12-.08.24-.12.36-.2.59-.03.08-.07.14-.13.18-.06.04-.13.07-.2.07-.09,0-.18-.02-.25-.08-.08-.06-.11-.13-.12-.22,0-.04,0-.08.02-.12.41-1.08.61-1.62.98-2.71.06-.18.13-.31.21-.37.08-.07.19-.1.31-.11.13,0,.23.01.33.07.09.05.18.17.27.34.52,1.02.79,1.53,1.36,2.54.02.04.03.08.04.12,0,.09-.02.17-.09.23s-.15.1-.24.11c-.07,0-.14,0-.21-.04-.06-.03-.12-.09-.15-.16-.11-.22-.17-.33-.28-.56Zm-.97-1.99c-.2.65-.3.98-.52,1.63.5-.03.76-.05,1.26-.09-.31-.61-.45-.92-.74-1.54Z"/>
    <path class="cls-2" d="m28.96,35.73c-.08-.05-.13-.14-.14-.25-.13-1.1-.19-1.65-.32-2.76-.01-.1.01-.19.08-.27.06-.08.15-.12.25-.13.43-.05.64-.08,1.07-.15.85-.13,1.33.09,1.43.67.04.2,0,.39-.11.55-.11.16-.3.29-.56.37,0,0,0,0,0,0,.24,0,.43.06.56.18.14.11.24.28.31.5.07.22.1.33.17.55,0,.01,0,.03.01.06.02.11,0,.2-.06.27-.06.07-.13.12-.23.13-.1.02-.2,0-.28-.05-.08-.05-.14-.13-.17-.24-.06-.22-.09-.33-.15-.54-.03-.1-.06-.19-.09-.25-.03-.06-.08-.12-.13-.16-.05-.04-.12-.07-.2-.08-.08,0-.18,0-.3.01,0,0,0,0-.01,0-.26.04-.4.06-.66.09.06.45.09.68.15,1.13.01.11-.01.2-.08.28-.07.07-.15.11-.25.13-.1.01-.19,0-.27-.06Zm.9-2.05c.07,0,.13-.02.18-.03.05,0,.1-.02.17-.04.06-.02.12-.03.16-.05.04-.02.09-.04.13-.08s.08-.07.1-.1c.02-.04.04-.08.05-.14.01-.05,0-.11,0-.18,0-.06-.03-.12-.05-.16-.02-.05-.05-.08-.07-.11-.03-.03-.06-.05-.1-.07-.04-.02-.08-.03-.12-.03-.04,0-.08,0-.14,0-.05,0-.1,0-.14,0-.04,0-.09.01-.15.02-.02,0-.03,0-.05,0-.24.03-.36.05-.6.08.05.38.08.57.13.95.21-.03.31-.04.51-.07Z"/>
    <path class="cls-2" d="m32.68,35.14c-.08-.05-.14-.13-.16-.24-.21-1.09-.31-1.63-.52-2.72-.02-.11,0-.2.05-.28.06-.08.13-.13.22-.14.09-.02.18,0,.26.05.08.05.13.13.16.23.22,1.09.34,1.63.56,2.71.02.11,0,.2-.06.28s-.14.13-.24.15c-.1.02-.19,0-.28-.05Z"/>
    <path class="cls-2" d="m34.33,34.81c-.08-.04-.13-.1-.15-.19-.24-1.08-.36-1.62-.61-2.7-.03-.13-.02-.23.04-.32s.13-.15.23-.17c.07-.02.15-.01.24.01.09.02.17.07.23.13.84.7,1.27,1.05,2.17,1.72-.23-.83-.34-1.24-.57-2.07-.02-.09-.01-.17.03-.24.05-.07.11-.12.19-.14.08-.02.16-.02.24.02.08.04.13.1.15.19.3,1.04.45,1.56.76,2.6.04.13.03.25-.01.36-.05.1-.13.17-.24.21-.07.02-.16.02-.26,0-.1-.02-.18-.06-.26-.12-.89-.66-1.33-1-2.17-1.7.2.83.3,1.25.5,2.09.02.09,0,.17-.05.24-.05.07-.13.12-.21.14-.09.02-.17.01-.25-.03Z"/>
  </g>
</svg>